<svg width="188" height="44" viewBox="0 0 188 44" fill="none" xmlns="http://www.w3.org/2000/svg">
<path d="M22.9597 42.9063C34.5059 42.9063 43.866 33.5462 43.866 22C43.866 10.4538 34.5059 1.09375 22.9597 1.09375C11.4135 1.09375 2.05347 10.4538 2.05347 22C2.05347 33.5462 11.4135 42.9063 22.9597 42.9063Z" fill="#E0F465"/>
<path d="M22.9598 9.33768C18.6049 9.33768 14.7572 11.5475 12.4781 14.9036V13.8121C12.4781 13.1909 12.0089 12.7217 11.3878 12.7217C10.7666 12.7217 10.2974 13.1909 10.2974 13.8121V30.1881C10.2974 30.8092 10.7666 31.2785 11.3878 31.2785C12.0089 31.2785 12.4781 30.8092 12.4781 30.1881V29.0966C14.7584 32.4527 18.606 34.6625 22.9598 34.6625C29.9423 34.6625 35.6233 28.9815 35.6233 21.999C35.6233 15.0164 29.9423 9.33545 22.9598 9.33545V9.33768ZM22.9598 32.5554C17.1995 32.5554 12.5139 27.8207 12.5139 22.0001C12.5139 20.7667 12.7273 19.5568 13.1429 18.4016C14.0847 16.6632 15.9258 15.4801 18.0374 15.4801C21.1052 15.4801 23.601 17.9759 23.601 21.0438C23.601 21.6403 24.0859 22.1252 24.6825 22.1252C25.2791 22.1252 25.7639 21.6403 25.7639 21.0438C25.7639 16.7839 22.2984 13.3172 18.0374 13.3172C17.6575 13.3172 17.2832 13.3462 16.9179 13.3998C18.673 12.1419 20.7857 11.4447 22.9586 11.4447C28.719 11.4447 33.4045 16.1794 33.4045 22.0001C33.4045 27.8207 28.719 32.5554 22.9586 32.5554H22.9598Z" fill="#363538"/>
<path d="M60.9597 15.3805H62.2382V18.6599C63.0115 16.5856 64.6738 15.1152 67.2561 15.1152C67.5948 15.1152 67.908 15.1406 68.1253 15.1886V16.4671C67.908 16.4417 67.5948 16.4191 67.2815 16.4191C64.2194 16.4191 62.241 18.6628 62.241 22.2075V28.6478H60.9625V15.3833L60.9597 15.3805Z" fill="#363538"/>
<path d="M69.9062 22.0607C69.9062 18.008 72.7285 15.1152 76.6118 15.1152C80.6871 15.1152 83.2441 18.1294 83.1735 22.422H71.2101C71.354 25.6788 73.5977 27.6798 76.7078 27.6798C78.8047 27.6798 80.5912 26.7879 81.483 25.0523H82.8094C81.7229 27.6346 79.3353 28.8877 76.6824 28.8877C72.7764 28.8877 69.9062 26.1614 69.9062 22.0607ZM81.8217 21.2169C81.5084 18.3467 79.53 16.3203 76.6118 16.3203C73.6937 16.3203 71.5714 18.3467 71.2581 21.2169H81.8245H81.8217Z" fill="#363538"/>
<path d="M85.2449 24.4962H86.5459C87.1499 26.7399 88.8855 27.6797 91.5384 27.6797C93.7341 27.6797 95.5432 26.8104 95.5432 25.1002C95.5432 23.5084 93.9288 23.2177 91.2026 22.5178C87.3926 21.5526 85.9674 20.9261 85.9674 18.9477C85.9674 16.4867 88.1856 15.1123 91.1038 15.1123C94.022 15.1123 96.0483 16.4388 96.6269 18.7784H95.3258C94.7219 17.1133 93.1302 16.3428 91.1292 16.3428C88.863 16.3428 87.2458 17.308 87.2458 18.8517C87.2458 20.2262 88.5017 20.5395 91.6118 21.3353C94.99 22.2046 96.847 22.7097 96.847 25.0014C96.847 27.6317 94.4114 28.8848 91.5638 28.8848C88.1376 28.8848 85.798 27.3156 85.2449 24.4962Z" fill="#363538"/>
<path d="M99.2319 22.0607C99.2319 18.008 102.054 15.1152 105.938 15.1152C110.013 15.1152 112.57 18.1294 112.499 22.422H100.536C100.68 25.6788 102.923 27.6798 106.033 27.6798C108.13 27.6798 109.917 26.7879 110.809 25.0523H112.135C111.049 27.6346 108.661 28.8877 106.008 28.8877C102.102 28.8877 99.2319 26.1614 99.2319 22.0607ZM111.147 21.2169C110.834 18.3467 108.856 16.3203 105.938 16.3203C103.019 16.3203 100.897 18.3467 100.584 21.2169H111.15H111.147Z" fill="#363538"/>
<path d="M115.632 15.3805H116.91V18.6599C117.684 16.5856 119.346 15.1152 121.928 15.1152C122.267 15.1152 122.58 15.1406 122.797 15.1886V16.4671C122.58 16.4417 122.267 16.4191 121.954 16.4191C118.891 16.4191 116.913 18.6628 116.913 22.2075V28.6478H115.635V15.3833L115.632 15.3805Z" fill="#363538"/>
<path d="M131.019 28.6448H129.354L124.144 15.3804H125.518L130.197 27.4172L134.851 15.3804H136.226L131.016 28.6448H131.019Z" fill="#363538"/>
<path d="M137.504 22.0607C137.504 18.008 140.326 15.1152 144.21 15.1152C148.285 15.1152 150.842 18.1294 150.771 22.422H138.808C138.952 25.6788 141.196 27.6798 144.306 27.6798C146.403 27.6798 148.189 26.7879 149.081 25.0523H150.407C149.321 27.6346 146.933 28.8877 144.28 28.8877C140.374 28.8877 137.504 26.1614 137.504 22.0607ZM149.422 21.2169C149.109 18.3467 147.131 16.3203 144.213 16.3203C141.294 16.3203 139.172 18.3467 138.859 21.2169H149.425H149.422Z" fill="#363538"/>
<path d="M174.117 22.0127C174.117 25.9695 171.125 28.8877 167.315 28.8877C163.505 28.8877 160.514 25.9695 160.514 22.0127C160.514 18.056 163.579 15.1152 167.315 15.1152C171.052 15.1152 174.117 18.0334 174.117 22.0127ZM161.815 22.0127C161.815 25.2922 164.25 27.6798 167.312 27.6798C170.375 27.6798 172.81 25.2922 172.81 22.0127C172.81 18.7333 170.349 16.3457 167.312 16.3457C164.276 16.3457 161.815 18.6853 161.815 22.0127Z" fill="#363538"/>
<path d="M176.358 24.4962H177.659C178.263 26.7399 179.998 27.6797 182.651 27.6797C184.847 27.6797 186.656 26.8104 186.656 25.1002C186.656 23.5084 185.042 23.2177 182.315 22.5178C178.505 21.5526 177.08 20.9261 177.08 18.9477C177.08 16.4867 179.298 15.1123 182.217 15.1123C185.135 15.1123 187.161 16.4388 187.74 18.7784H186.439C185.835 17.1133 184.243 16.3428 182.242 16.3428C179.976 16.3428 178.359 17.308 178.359 18.8517C178.359 20.2262 179.615 20.5395 182.725 21.3353C186.103 22.2046 187.96 22.7097 187.96 25.0014C187.96 27.6317 185.524 28.8848 182.677 28.8848C179.25 28.8848 176.911 27.3156 176.358 24.4962Z" fill="#363538"/>
</svg>
