<svg width="45" height="44" viewBox="0 0 45 44" fill="none" xmlns="http://www.w3.org/2000/svg">
<path d="M22.9597 42.9063C34.5059 42.9063 43.866 33.5462 43.866 22C43.866 10.4538 34.5059 1.09375 22.9597 1.09375C11.4135 1.09375 2.05347 10.4538 2.05347 22C2.05347 33.5462 11.4135 42.9063 22.9597 42.9063Z" fill="#E0F465"/>
<path d="M22.9598 9.33768C18.6049 9.33768 14.7572 11.5475 12.4781 14.9036V13.8121C12.4781 13.1909 12.0089 12.7217 11.3878 12.7217C10.7666 12.7217 10.2974 13.1909 10.2974 13.8121V30.1881C10.2974 30.8092 10.7666 31.2785 11.3878 31.2785C12.0089 31.2785 12.4781 30.8092 12.4781 30.1881V29.0966C14.7584 32.4527 18.606 34.6625 22.9598 34.6625C29.9423 34.6625 35.6233 28.9815 35.6233 21.999C35.6233 15.0164 29.9423 9.33545 22.9598 9.33545V9.33768ZM22.9598 32.5554C17.1995 32.5554 12.5139 27.8207 12.5139 22.0001C12.5139 20.7667 12.7273 19.5568 13.1429 18.4016C14.0847 16.6632 15.9258 15.4801 18.0374 15.4801C21.1052 15.4801 23.601 17.9759 23.601 21.0438C23.601 21.6403 24.0859 22.1252 24.6825 22.1252C25.2791 22.1252 25.7639 21.6403 25.7639 21.0438C25.7639 16.7839 22.2984 13.3172 18.0374 13.3172C17.6575 13.3172 17.2832 13.3462 16.9179 13.3998C18.673 12.1419 20.7857 11.4447 22.9586 11.4447C28.719 11.4447 33.4045 16.1794 33.4045 22.0001C33.4045 27.8207 28.719 32.5554 22.9586 32.5554H22.9598Z" fill="#363538"/>
</svg>
